<svg width="556" height="150" viewBox="0 0 556 150" fill="none" xmlns="http://www.w3.org/2000/svg">
<mask id="mask0_342_2" style="mask-type:alpha" maskUnits="userSpaceOnUse" x="0" y="37" width="150" height="77">
<path d="M37.128 106.697L19.1903 90.6471H120.253V81.7058H19.1903L37.128 65.6563L30.0632 59.3528L0 86.1764L30.0632 113L37.128 106.697Z" fill="#6366F1"/>
<path d="M150 63.8237L119.937 37L112.872 43.3036L130.81 59.3531H29.7473V68.2943H130.81L112.872 84.3438L119.937 90.6473L150 63.8237Z" fill="#6366F1"/>
</mask>
<g mask="url(#mask0_342_2)">
<rect x="-31.066" y="75" width="150" height="150" transform="rotate(-45 -31.066 75)" fill="#6366F1"/>
</g>
<path d="M202.184 116C201.544 116 201 115.776 200.552 115.328C200.168 114.816 200.04 114.208 200.168 113.504L210.248 66.656H193.736C193.032 66.656 192.456 66.432 192.008 65.984C191.624 65.472 191.496 64.864 191.624 64.16L194.408 51.296C194.536 50.592 194.888 50.016 195.464 49.568C196.104 49.056 196.744 48.8 197.384 48.8H251.336C252.04 48.8 252.584 49.056 252.968 49.568C253.416 50.016 253.576 50.592 253.448 51.296L250.664 64.16C250.536 64.864 250.184 65.472 249.608 65.984C249.032 66.432 248.392 66.656 247.688 66.656H231.176L221.096 113.504C220.968 114.208 220.616 114.816 220.04 115.328C219.464 115.776 218.824 116 218.12 116H202.184ZM248.974 116C248.27 116 247.726 115.776 247.341 115.328C246.957 114.816 246.829 114.208 246.957 113.504L256.462 68.576C256.59 67.872 256.942 67.296 257.518 66.848C258.158 66.336 258.83 66.08 259.534 66.08H273.454C274.158 66.08 274.67 66.336 274.99 66.848C275.374 67.296 275.502 67.872 275.374 68.576L274.702 72.128C276.302 70.336 278.19 68.896 280.366 67.808C282.606 66.656 285.486 66.08 289.006 66.08H294.958C295.662 66.08 296.206 66.336 296.59 66.848C296.974 67.296 297.102 67.872 296.974 68.576L294.286 80.96C294.158 81.664 293.774 82.272 293.134 82.784C292.558 83.296 291.95 83.552 291.31 83.552H280.462C278.158 83.552 276.302 84.16 274.894 85.376C273.486 86.528 272.526 88.256 272.014 90.56L267.022 113.504C266.894 114.208 266.542 114.816 265.966 115.328C265.39 115.776 264.75 116 264.046 116H248.974ZM312.651 116.96C309.707 116.96 307.051 116.512 304.683 115.616C302.379 114.72 300.459 113.344 298.923 111.488C297.451 109.632 296.459 107.296 295.947 104.48C295.435 101.664 295.499 98.368 296.139 94.592C296.395 93.184 296.619 91.968 296.811 90.944C297.067 89.92 297.355 88.736 297.675 87.392C298.571 83.808 299.787 80.64 301.323 77.888C302.859 75.072 304.683 72.736 306.795 70.88C308.907 69.024 311.275 67.616 313.899 66.656C316.587 65.632 319.499 65.12 322.635 65.12C326.411 65.12 329.291 65.632 331.275 66.656C333.323 67.616 334.923 68.864 336.075 70.4L336.555 68.576C336.683 67.872 337.035 67.296 337.611 66.848C338.187 66.336 338.795 66.08 339.435 66.08H352.971C353.675 66.08 354.219 66.336 354.603 66.848C354.987 67.296 355.115 67.872 354.987 68.576L345.483 113.504C345.355 114.208 345.003 114.816 344.427 115.328C343.851 115.776 343.211 116 342.507 116H328.971C328.267 116 327.691 115.776 327.243 115.328C326.859 114.816 326.731 114.208 326.859 113.504L327.435 110.816C325.515 112.672 323.435 114.176 321.195 115.328C318.955 116.416 316.107 116.96 312.651 116.96ZM321.291 101.984C322.955 101.984 324.331 101.632 325.419 100.928C326.571 100.224 327.499 99.296 328.203 98.144C328.907 96.992 329.451 95.712 329.835 94.304C330.219 92.896 330.507 91.68 330.699 90.656C330.955 89.632 331.179 88.448 331.371 87.104C331.563 85.76 331.531 84.576 331.275 83.552C331.083 82.528 330.571 81.696 329.739 81.056C328.907 80.416 327.723 80.096 326.187 80.096C324.587 80.096 323.243 80.448 322.155 81.152C321.067 81.792 320.171 82.72 319.467 83.936C318.827 85.088 318.283 86.432 317.835 87.968C317.579 88.928 317.323 89.952 317.067 91.04C316.811 92.128 316.619 93.152 316.491 94.112C316.299 95.648 316.267 97.024 316.395 98.24C316.523 99.392 316.971 100.32 317.739 101.024C318.507 101.664 319.691 101.984 321.291 101.984ZM374.338 116.96C371.394 116.96 368.738 116.512 366.37 115.616C364.066 114.72 362.178 113.344 360.706 111.488C359.234 109.632 358.21 107.296 357.634 104.48C357.122 101.664 357.186 98.368 357.826 94.592C358.082 93.184 358.306 91.968 358.498 90.944C358.754 89.92 359.042 88.736 359.362 87.392C360.258 83.808 361.442 80.64 362.914 77.888C364.45 75.072 366.274 72.736 368.386 70.88C370.498 69.024 372.834 67.616 375.394 66.656C377.954 65.632 380.706 65.12 383.65 65.12C386.594 65.12 389.218 65.6 391.522 66.56C393.89 67.456 395.682 68.672 396.898 70.208L401.026 50.336C401.154 49.632 401.506 49.056 402.082 48.608C402.658 48.096 403.298 47.84 404.002 47.84H418.786C419.426 47.84 419.938 48.096 420.322 48.608C420.77 49.056 420.93 49.632 420.802 50.336L407.362 113.504C407.234 114.208 406.85 114.816 406.21 115.328C405.634 115.776 405.026 116 404.386 116H390.754C390.05 116 389.506 115.776 389.122 115.328C388.738 114.816 388.61 114.208 388.738 113.504L389.314 110.816C387.394 112.672 385.282 114.176 382.978 115.328C380.738 116.416 377.858 116.96 374.338 116.96ZM383.074 101.984C384.738 101.984 386.114 101.632 387.202 100.928C388.354 100.224 389.282 99.296 389.986 98.144C390.754 96.992 391.33 95.712 391.714 94.304C392.034 92.896 392.29 91.68 392.482 90.656C392.738 89.632 392.962 88.448 393.154 87.104C393.41 85.76 393.41 84.576 393.154 83.552C392.898 82.528 392.354 81.696 391.522 81.056C390.69 80.416 389.506 80.096 387.97 80.096C386.37 80.096 384.994 80.448 383.842 81.152C382.754 81.792 381.858 82.72 381.154 83.936C380.514 85.088 379.97 86.432 379.522 87.968C379.266 88.928 379.01 89.952 378.754 91.04C378.498 92.128 378.306 93.152 378.178 94.112C377.986 95.648 377.954 97.024 378.082 98.24C378.21 99.392 378.658 100.32 379.426 101.024C380.258 101.664 381.474 101.984 383.074 101.984ZM419.505 116C418.801 116 418.257 115.776 417.873 115.328C417.489 114.816 417.361 114.208 417.489 113.504L426.993 68.576C427.121 67.872 427.473 67.296 428.049 66.848C428.689 66.336 429.361 66.08 430.065 66.08H444.273C444.977 66.08 445.521 66.336 445.905 66.848C446.289 67.296 446.417 67.872 446.289 68.576L436.689 113.504C436.561 114.208 436.209 114.816 435.633 115.328C435.057 115.776 434.417 116 433.713 116H419.505ZM431.601 59.84C430.897 59.84 430.353 59.616 429.969 59.168C429.585 58.656 429.457 58.048 429.585 57.344L431.697 47.264C431.825 46.56 432.177 45.952 432.753 45.44C433.393 44.928 434.065 44.672 434.769 44.672H448.689C449.329 44.672 449.841 44.928 450.225 45.44C450.609 45.952 450.737 46.56 450.609 47.264L448.401 57.344C448.337 58.048 447.985 58.656 447.345 59.168C446.769 59.616 446.129 59.84 445.425 59.84H431.601ZM454.613 116C453.909 116 453.365 115.776 452.981 115.328C452.597 114.816 452.469 114.208 452.597 113.504L459.605 80.768H452.597C451.893 80.768 451.349 80.544 450.965 80.096C450.581 79.584 450.453 78.976 450.581 78.272L452.597 68.576C452.725 67.872 453.077 67.296 453.653 66.848C454.293 66.336 454.965 66.08 455.669 66.08H462.677L463.157 63.776C464.245 58.912 465.941 55.136 468.245 52.448C470.549 49.696 473.397 47.776 476.789 46.688C480.245 45.536 484.149 44.96 488.501 44.96H498.389C499.093 44.96 499.605 45.216 499.925 45.728C500.309 46.176 500.437 46.752 500.309 47.456L498.197 57.152C498.069 57.856 497.717 58.464 497.141 58.976C496.565 59.424 495.925 59.648 495.221 59.648H488.117C486.389 59.648 485.013 60.064 483.989 60.896C483.029 61.664 482.389 62.784 482.069 64.256L481.685 66.08H492.917C493.621 66.08 494.133 66.336 494.453 66.848C494.837 67.296 494.965 67.872 494.837 68.576L492.821 78.272C492.693 78.976 492.309 79.584 491.669 80.096C491.093 80.544 490.485 80.768 489.845 80.768H478.517L471.509 113.504C471.381 114.208 471.029 114.816 470.453 115.328C469.877 115.776 469.237 116 468.533 116H454.613ZM496.452 134.24C495.748 134.24 495.236 133.888 494.916 133.184C494.66 132.544 494.756 131.904 495.204 131.264L506.82 112.832L497.508 68.96C497.38 68.192 497.572 67.52 498.084 66.944C498.596 66.368 499.332 66.08 500.292 66.08H513.06C513.956 66.08 514.564 66.336 514.884 66.848C515.268 67.296 515.492 67.744 515.556 68.192L520.164 93.152L535.524 68.192C535.844 67.68 536.26 67.2 536.772 66.752C537.348 66.304 538.084 66.08 538.98 66.08H553.284C554.116 66.08 554.628 66.4 554.82 67.04C555.076 67.68 555.012 68.352 554.628 69.056L514.02 132.128C513.764 132.64 513.316 133.12 512.676 133.568C512.1 134.016 511.364 134.24 510.468 134.24H496.452Z" fill="white"/>
</svg>
