<svg width="150" height="150" viewBox="0 0 150 150" fill="none" xmlns="http://www.w3.org/2000/svg">
<path fill-rule="evenodd" clip-rule="evenodd" d="M50.9953 43C50.9953 36.6348 53.5239 30.5303 58.0247 26.0294C62.5256 21.5286 68.6301 19 74.9953 19C81.3605 19 87.465 21.5286 91.9659 26.0294C96.4667 30.5303 98.9953 36.6348 98.9953 43C98.9953 49.3652 96.4667 55.4697 91.9659 59.9706C87.465 64.4714 81.3605 67 74.9953 67C68.6301 67 62.5256 64.4714 58.0247 59.9706C53.5239 55.4697 50.9953 49.3652 50.9953 43ZM31.0006 118.227C31.1805 106.677 35.8947 95.6616 44.1258 87.5578C52.3568 79.4539 63.4444 74.9117 74.9953 74.9117C86.5462 74.9117 97.6338 79.4539 105.865 87.5578C114.096 95.6616 118.81 106.677 118.99 118.227C119.004 119.004 118.791 119.769 118.377 120.427C117.963 121.086 117.366 121.609 116.659 121.933C103.588 127.926 89.3748 131.019 74.9953 131C60.1366 131 46.0193 127.757 33.3313 121.933C32.6246 121.609 32.0277 121.086 31.6138 120.427C31.1998 119.769 30.9868 119.004 31.0006 118.227Z" fill="#18181B"/>
</svg>
